<svg xmlns="http://www.w3.org/2000/svg" fill="none" viewBox="0 0 300 71">
  <defs/>
  <g clip-path="url(#clip0)">
    <path fill="#6CA4C2" d="M46.95 0v46.95H0L46.95 0z"/>
    <path fill="#5F73E0" d="M.01 70.16l18.456-18.457h33.237V18.466L70.17 0v70.16H.01z"/>
    <path id="text" fill="#383B4A" d="M269.915 57.446c3.322-.02 6.305-1.43 8.951-4.23l.058 3.564h5.532V40.414c0-3.997-1.014-7.048-3.041-9.153-2.124-2.125-5.224-3.187-9.298-3.187-3.727 0-7.251.947-10.573 2.84l1.738 3.794c2.607-1.622 5.436-2.433 8.487-2.433 2.124 0 3.819.555 5.084 1.665 1.265 1.11 1.897 2.69 1.897 4.736v1.13l-7.531.318c-3.399.155-6.088.951-8.067 2.39s-2.969 3.5-2.969 6.184c0 2.665.941 4.79 2.824 6.373 1.883 1.583 4.186 2.375 6.909 2.375h-.001zm1.738-4.055c-1.834 0-3.263-.464-4.287-1.39-1.023-.928-1.535-2.086-1.535-3.477 0-3.012 2.134-4.634 6.402-4.866l6.575-.406v6.054c-1.816 2.723-4.2 4.085-7.155 4.085zm24.529-30.531c1.062 0 1.941-.328 2.636-.985.695-.656 1.043-1.501 1.043-2.535 0-1.033-.348-1.872-1.043-2.52-.695-.646-1.574-.97-2.636-.97-1.12 0-2.023.324-2.708.97-.686.648-1.029 1.488-1.029 2.52 0 1.034.348 1.878 1.043 2.535.695.657 1.593.985 2.694.985zm2.839 33.919V28.596h-5.707v28.183h5.707zm-45.999.748c1.159 0 2.1-.333 2.825-.999.724-.666 1.086-1.55 1.086-2.65 0-1.14-.367-2.052-1.101-2.737-.734-.686-1.67-1.029-2.81-1.029-1.177 0-2.133.343-2.867 1.029-.734.685-1.101 1.598-1.101 2.737 0 1.1.367 1.984 1.101 2.65.734.666 1.69 1 2.867 1zM85.766 50.844l3.297-3.79c1.156 1.557 2.639 2.911 4.448 4.06 1.81 1.15 3.728 1.725 5.755 1.725 2.255 0 4.126-.613 5.614-1.838 1.487-1.226 2.231-2.874 2.231-4.945 0-.97-.213-1.843-.64-2.622-.426-.78-1.075-1.449-1.947-2.01-.871-.56-1.52-.95-1.947-1.168-.426-.219-1.084-.499-1.975-.84-3.145-1.255-5.277-2.157-6.395-2.708-1.629-.741-2.974-1.691-4.035-2.85-1.743-1.825-2.615-4.162-2.615-7.012 0-3.116 1.222-5.7 3.666-7.752 2.369-1.976 5.457-2.973 9.266-2.992 4.376 0 8.213 1.738 11.51 5.215l-2.956 3.848c-2.709-2.888-5.655-4.332-8.839-4.332-2.065 0-3.746.489-5.044 1.467-1.298.98-1.947 2.361-1.947 4.147 0 .893.142 1.682.426 2.366.284.684.71 1.268 1.279 1.753.568.484 1.104.864 1.606 1.14.502.275 1.122.565 1.861.87l7.39 3.106c1.933.893 3.448 1.976 4.547 3.249 1.63 2.033 2.444 4.294 2.444 6.783 0 3.534-1.402 6.45-4.206 8.75-2.558 2.108-5.836 3.163-9.834 3.163-1.63 0-3.168-.228-4.618-.684-1.45-.456-2.738-1.102-3.865-1.938-1.128-.836-1.985-1.534-2.572-2.095a25.135 25.135 0 01-1.905-2.066zm33.153 6.27V16.785h5.586v23.66l11.371-11.102h6.589l-10.914 10.475 12.317 17.296h-6.588l-9.538-13.443-3.237 3.026v10.417h-5.586zm25.975-8.088c0-2.64.982-4.666 2.947-6.08 1.964-1.416 4.634-2.199 8.007-2.35l7.476-.314v-1.11c0-2.013-.628-3.566-1.883-4.657-1.256-1.092-2.938-1.638-5.046-1.638-3.029 0-5.837.798-8.425 2.393l-1.725-3.731c3.297-1.861 6.795-2.792 10.495-2.792 4.044 0 7.121 1.045 9.229 3.133 2.013 2.07 3.019 5.07 3.019 9v16.092h-5.491l-.058-3.503c-2.626 2.753-5.588 4.14-8.884 4.158-2.703 0-4.989-.778-6.858-2.335-1.869-1.557-2.803-3.646-2.803-6.266zm5.639.002c0 1.383.505 2.535 1.516 3.457 1.011.922 2.422 1.383 4.234 1.383 2.918 0 5.273-1.354 7.066-4.062v-6.02l-6.494.403c-4.215.23-6.322 1.843-6.322 4.84zm22.386-15.207v-4.494h3.998v-2.787c0-3.375.633-5.84 1.898-7.395 1.65-2.01 3.883-3.024 6.702-3.043.94 0 1.812.052 2.618.156.805.104 1.39.213 1.754.327l.46.17-.345 4.125a10.309 10.309 0 00-3.192-.512c-1.688 0-2.824.512-3.409 1.536s-.877 2.474-.877 4.351v3.072h6.644v4.494h-6.644v23.122h-5.609V33.82h-3.998zm21.454 19.79c-2.796-2.697-4.194-6.167-4.194-10.41 0-4.244 1.403-7.714 4.209-10.41 2.806-2.696 6.311-4.045 10.515-4.045 4.167 0 7.653 1.349 10.459 4.045 2.806 2.696 4.209 6.166 4.209 10.41 0 4.243-1.403 7.708-4.209 10.395-2.806 2.687-6.292 4.03-10.459 4.03-4.204 0-7.714-1.338-10.53-4.016zm3.911-17.326c-1.644 1.837-2.466 4.15-2.466 6.943 0 2.793.822 5.122 2.466 6.986 1.644 1.865 3.822 2.797 6.534 2.797 2.711 0 4.88-.932 6.505-2.797 1.625-1.864 2.438-4.193 2.438-6.986 0-2.792-.813-5.106-2.438-6.943-1.625-1.836-3.794-2.755-6.505-2.755-2.712 0-4.89.919-6.534 2.755zm24.363 16.356l2.677-3.247c1.006 1.254 2.278 2.227 3.816 2.92 1.538.693 2.991 1.04 4.358 1.04 1.481 0 2.734-.314 3.759-.94 1.026-.627 1.538-1.633 1.538-3.02 0-.474-.114-.925-.342-1.352a3.687 3.687 0 00-.811-1.054c-.314-.276-.741-.546-1.282-.812s-.978-.46-1.31-.584c-.332-.123-.802-.28-1.41-.47-.607-.19-.968-.303-1.082-.342-2.013-.702-3.275-1.186-3.788-1.452-2.924-1.481-4.386-3.703-4.386-6.665 0-2.45.906-4.381 2.72-5.796 1.813-1.414 4.02-2.121 6.622-2.121 4.044 0 7.196 1.205 9.455 3.617l-2.335 3.446c-1.899-1.975-4.234-2.972-7.006-2.99-1.368 0-2.445.294-3.233.882-.788.589-1.182 1.443-1.182 2.564 0 1.006.465 1.813 1.396 2.42.93.608 2.269 1.178 4.015 1.71 1.861.664 3.105 1.11 3.731 1.338 1.405.589 2.478 1.253 3.219 1.994 1.481 1.405 2.221 3.114 2.221 5.126 0 2.602-.959 4.709-2.876 6.323-1.975 1.633-4.538 2.45-7.69 2.45-4.671 0-8.269-1.662-10.794-4.985z"/>
  </g>
  <defs>
    <clipPath id="clip0">
      <path fill="#fff" d="M0 0h300v70.169H0z"/>
    </clipPath>
  </defs>
</svg>
