<?xml version="1.0" encoding="UTF-8" standalone="no"?>

<svg
   version="1.1"
   id="svg9"

   viewBox="0 0 102.2 36.2"
   xmlns="http://www.w3.org/2000/svg"
   xmlns:svg="http://www.w3.org/2000/svg">
  <defs
     id="defs13" />
  <g transform="translate(-204.8 -75)"
     id="g15">
    <path
       style="fill:#676ddf;stroke:none;stroke-width:0.199534"
       d="m 208.78213,73.967361 c -3.57764,0.676103 -3.79115,3.927012 -3.79115,6.890393 V 101.6093 c 0,2.86411 -0.51052,6.40624 2.59394,7.90095 2.13412,1.0276 5.2695,0.47948 7.5823,0.47948 h 16.76086 50.08307 14.76552 c 2.22221,0 5.07295,0.46991 7.18323,-0.31107 3.28752,-1.21696 2.99301,-4.60046 2.99301,-7.47076 V 81.65589 c 0,-2.870358 0.29451,-6.253867 -2.99301,-7.470672 -2.57479,-0.953031 -6.25859,-0.311158 -8.97904,-0.311158 h -19.15527 -45.29424 -14.36646 c -2.37025,0 -5.05113,-0.347333 -7.38276,0.0933 m 41.50309,11.539717 c 7.58429,-1.117251 8.91718,12.228866 1.99534,13.442632 -7.95622,1.395141 -9.39885,-12.351998 -1.99534,-13.442632 m 16.76087,1.336699 c -0.97353,2.429248 -5.47502,-1.906528 -6.07741,1.795967 -0.39987,2.457701 5.1791,3.090165 6.18875,4.98897 1.21316,2.281693 -0.31646,4.764894 -2.70529,5.283085 -2.27349,0.493248 -4.23112,-0.304489 -5.98602,-1.692249 v -0.199534 l 0.79814,-0.997671 c 1.39255,0.616561 2.53747,1.7134 4.19021,1.527833 1.47416,-0.165613 3.01536,-1.669103 1.90875,-3.115526 -1.53282,-2.003082 -4.8393,-1.693624 -5.96867,-4.198795 -1.05932,-2.349793 0.98929,-4.47996 3.26179,-4.752025 1.65074,-0.197638 3.04988,0.476368 4.38975,1.359945 m -30.52872,6.784159 v 5.187887 h -1.59627 v -13.16925 c 2.25812,0 5.44608,-0.507076 7.364,0.957804 2.01989,1.542718 1.52863,5.192017 -0.58004,6.40726 -1.52065,0.876492 -3.50781,0.6163 -5.18769,0.6163 m 41.50309,-7.981364 c -0.0265,2.233944 -2.28865,1.596273 -3.99068,1.596273 v 11.572978 h -1.79581 V 87.242845 h -3.79114 v -1.596273 h 9.57763 m -41.50309,6.584626 c 0.9845,0 2.01529,0.08678 2.99301,-0.03695 3.79314,-0.479999 2.55583,-4.995137 -0.79814,-5.143071 -0.55091,-0.0243 -1.59826,-0.182175 -1.98975,0.312071 -0.72112,0.910375 -0.20512,3.730809 -0.20512,4.867954 m 13.56832,-5.076567 c -4.70322,1.234318 -3.4284,11.834188 1.99534,10.276624 4.6675,-1.34047 3.65407,-11.759302 -1.99534,-10.276624 z"
       id="path253" />
  </g>
</svg>
